<svg id="Capa_1" enable-background="new 0 0 512 512" height="512" viewBox="0 0 512 512" width="512" xmlns="http://www.w3.org/2000/svg" xmlns:xlink="http://www.w3.org/1999/xlink"><linearGradient id="lg1"><stop offset="0" stop-color="#ab2c37"/><stop offset=".2007" stop-color="#b52f3b"/><stop offset=".5471" stop-color="#d13846"/><stop offset=".9952" stop-color="#fe4757"/><stop offset="1" stop-color="#ff4757"/></linearGradient><linearGradient id="SVGID_1_" gradientUnits="userSpaceOnUse" x1="166.068" x2="305.435" xlink:href="#lg1" y1="304.738" y2="63.347"/><linearGradient id="SVGID_2_" gradientUnits="userSpaceOnUse" x1="228.632" x2="269.669" y1="332.269" y2="332.269"><stop offset="0" stop-color="#c5baeb"/><stop offset="1" stop-color="#d7d1eb"/></linearGradient><linearGradient id="SVGID_3_" gradientUnits="userSpaceOnUse" x1="235.095" x2="292.638" xlink:href="#lg1" y1="409.318" y2="409.318"/><g><path d="m231.615 16.922-.012.01c-25.344-17.234-61.525-15.822-106.955 10.408-68.841 39.745-124.648 119.225-124.648 177.524l262.705 152.941 226.903-191.37z" fill="url(#SVGID_1_)"/><path d="m157.602 46.375c41.939-24.213 75.988-27.264 100.913-14.034l-9.203-5.333-.012.01c-25.343-17.234-61.525-15.822-106.955 10.407-68.841 39.747-124.648 119.227-124.648 177.526l15.259 8.883c.042-58.293 55.83-137.728 124.646-177.459z" fill="#ab2c37"/><path d="m226.245 86.419c41.939-24.213 75.988-27.264 100.913-14.034l-9.203-5.333-.012.01c-25.343-17.233-61.525-15.821-106.955 10.408-68.841 39.745-124.648 119.226-124.648 177.524l15.259 8.884c.042-58.293 55.83-137.729 124.646-177.459z" fill="#ab2c37"/><path d="m294.854 126.276c41.939-24.213 75.988-27.264 100.913-14.034l-9.203-5.333-.012.01c-25.343-17.234-61.525-15.822-106.955 10.407-68.841 39.747-124.647 119.227-124.647 177.526l15.259 8.883c.041-58.293 55.83-137.728 124.645-177.459z" fill="#ab2c37"/><path d="m362.594 165.796c41.939-24.213 75.988-27.264 100.913-14.034l-9.203-5.333-.012.01c-25.343-17.234-61.525-15.822-106.955 10.407-68.84 39.747-124.647 119.227-124.647 177.526l15.259 8.883c.041-58.293 55.83-137.728 124.645-177.459z" fill="#ab2c37"/><path d="m387.352 180.281c-68.325 39.447-123.781 118.025-124.609 176.199l-.016.039-262.727-151.655v140.119c0 9.779 5.217 18.815 13.685 23.704l229.636 132.58c12.008 6.933 26.803 6.932 38.81-.002l216.186-124.852c8.467-4.89 13.682-13.925 13.682-23.702v-138.837c.001-58.298-55.806-73.339-124.647-33.593z" fill="url(#SVGID_2_)"/><path d="m498.318 343.6-216.186 124.851c-12.007 6.935-26.802 6.935-38.811.003l-229.636-132.58c-8.468-4.889-13.685-13.925-13.685-23.704v32.813c0 9.779 5.217 18.815 13.685 23.704l229.636 132.581c12.008 6.932 26.803 6.932 38.811-.003l216.186-124.851c8.467-4.89 13.682-13.925 13.682-23.702v-32.813c0 9.776-5.216 18.811-13.682 23.701z" fill="url(#SVGID_3_)"/><g fill="#43386b"><path d="m357.369 457.788 89.749-51.817v-88.457l-89.749 52.025z"/><path d="m79.854 326.983-28.767-16.542v-44.967l28.767 16.676z"/><path d="m185.254 388.493-28.767-16.542v-44.968l28.767 16.676z"/><path d="m357.369 342.73 28.767-16.542v-44.967l-28.767 16.675z"/><path d="m418.351 307.431 28.767-16.542v-44.967l-28.767 16.675z"/></g></g></svg>